<?xml version="1.0" encoding="iso-8859-1"?>
<!-- Uploaded to: SVG Repo, www.svgrepo.com, Generator: SVG Repo Mixer Tools -->
<svg height="800px" width="800px" version="1.1" id="Layer_1" xmlns="http://www.w3.org/2000/svg" xmlns:xlink="http://www.w3.org/1999/xlink" 
	 viewBox="0 0 297.001 297.001" xml:space="preserve">
<g>
	<path style="fill:#875008;" d="M295,141.828c-1.577-2.276-4.17-3.634-6.94-3.634H148.169H8.94c-2.769,0-5.362,1.358-6.94,3.634
		c-1.577,2.277-1.938,5.181-0.966,7.774l46.498,123.995c4.719,12.587,16.923,21.044,30.367,21.044h70.27h70.932
		c13.444,0,25.648-8.457,30.367-21.044l46.498-123.995C296.938,147.009,296.577,144.105,295,141.828z"/>
	<path style="fill:#A36408;" d="M8.94,138.194c-2.769,0-5.362,1.358-6.94,3.634c-1.577,2.277-1.938,5.181-0.966,7.774
		l46.498,123.995c4.719,12.587,16.923,21.044,30.367,21.044h70.27V138.194H8.94z"/>
	<path style="fill:#875008;" d="M295,141.828c-1.577-2.276-4.17-3.634-6.94-3.634H148.169v156.446h70.932
		c13.444,0,25.648-8.457,30.367-21.044l46.498-123.995C296.938,147.009,296.577,144.105,295,141.828z"/>
	<path style="fill:#593306;" d="M288.557,113.362H172.296V10.802c0-4.663-3.78-8.443-8.443-8.443H148.17h-15.022
		c-4.663,0-8.443,3.78-8.443,8.443v102.559H8.443c-4.663,0-8.443,3.78-8.443,8.443s3.78,8.443,8.443,8.443h139.726h140.388
		c4.663,0,8.443-3.78,8.443-8.443S293.22,113.362,288.557,113.362z"/>
	<path style="fill:#7A4806;" d="M133.147,2.359c-4.663,0-8.443,3.78-8.443,8.443v102.559H8.443c-4.663,0-8.443,3.78-8.443,8.443
		s3.78,8.443,8.443,8.443h139.726V2.359H133.147z"/>
	<path style="fill:#593306;" d="M288.557,113.362H172.296V10.802c0-4.663-3.78-8.443-8.443-8.443H148.17v127.889h140.388
		c4.663,0,8.443-3.78,8.443-8.443S293.22,113.362,288.557,113.362z"/>
</g>
</svg>